<?xml version="1.0" standalone="no"?>
<!DOCTYPE svg PUBLIC "-//W3C//DTD SVG 20010904//EN"
 "http://www.w3.org/TR/2001/REC-SVG-20010904/DTD/svg10.dtd">
<svg version="1.0" xmlns="http://www.w3.org/2000/svg"
 width="512.000000pt" height="512.000000pt" viewBox="0 0 512.000000 512.000000"
 preserveAspectRatio="xMidYMid meet">
<metadata>
Created by potrace 1.14, written by Peter Selinger 2001-2017
</metadata>
<g transform="translate(0.000000,512.000000) scale(0.100000,-0.100000)"
fill="#000000" stroke="none">
<path d="M2379 5116 c-2 -2 -35 -6 -74 -10 -662 -58 -1308 -408 -1737 -940
-117 -145 -249 -352 -310 -486 -63 -137 -79 -175 -106 -250 -72 -200 -117
-399 -139 -610 -15 -139 -8 -503 11 -615 3 -16 8 -43 10 -60 8 -58 38 -191 61
-275 196 -699 675 -1277 1327 -1602 198 -99 401 -169 608 -211 215 -44 286
-51 525 -52 217 0 307 8 480 41 44 8 91 18 105 20 130 25 389 118 552 199 639
319 1108 871 1317 1550 78 254 105 448 106 740 0 193 -3 251 -16 330 -4 28
-10 66 -13 85 -2 19 -10 60 -16 90 -6 30 -14 66 -16 80 -3 14 -16 64 -30 112
-164 584 -526 1085 -1036 1432 -54 36 -101 66 -105 66 -3 0 -14 6 -22 14 -23
20 -263 139 -351 174 -79 31 -223 80 -256 87 -10 2 -57 13 -104 25 -47 12 -96
24 -110 26 -14 2 -38 6 -55 8 -16 3 -50 8 -75 11 -25 4 -56 9 -70 11 -28 6
-456 15 -461 10z"/>
</g>
</svg>
